<?xml version="1.0" standalone="no"?>
<!DOCTYPE svg PUBLIC "-//W3C//DTD SVG 20010904//EN"
 "http://www.w3.org/TR/2001/REC-SVG-20010904/DTD/svg10.dtd">
<svg version="1.0" xmlns="http://www.w3.org/2000/svg"
 width="577.000000pt" height="577.000000pt" viewBox="0 0 577.000000 577.000000"
 preserveAspectRatio="xMidYMid meet">
<metadata>
Created by potrace 1.11, written by Peter Selinger 2001-2013
</metadata>
<g transform="translate(0.000000,577.000000) scale(0.100000,-0.100000)"
fill="#000000" stroke="none">
<path d="M1210 2885 l0 -395 58 -1 c171 -1 224 0 228 4 3 3 5 103 5 222 0 220
-7 267 -35 230 -10 -12 -14 -12 -36 4 -20 16 -22 21 -11 35 9 11 10 16 2 16
-8 0 -8 5 1 19 6 11 18 17 26 13 11 -4 13 -1 7 9 -8 12 -6 12 8 0 9 -7 17 -10
17 -7 0 4 17 -9 38 -27 20 -19 84 -76 142 -128 58 -51 121 -107 140 -125 19
-17 78 -69 130 -115 52 -46 104 -92 115 -102 47 -45 53 -46 266 -48 113 -1
210 0 215 4 6 3 10 106 9 262 0 141 2 258 5 260 3 2 35 -25 71 -58 36 -34 86
-79 110 -101 55 -48 200 -177 215 -191 81 -74 170 -152 184 -162 11 -8 86 -13
231 -15 l214 -2 5 89 5 89 375 1 c358 1 377 2 421 22 63 28 125 87 157 147 23
43 27 64 27 136 0 69 -4 94 -23 132 -41 83 -115 143 -202 167 -33 8 -177 11
-545 9 l-500 -3 2 -257 c1 -142 -1 -260 -5 -262 -4 -2 -32 19 -63 47 -54 51
-153 140 -253 228 -27 24 -57 51 -66 59 -8 8 -52 47 -95 85 -44 39 -87 78 -96
88 -15 15 -40 17 -238 17 -170 0 -221 -3 -222 -12 0 -7 0 -127 1 -267 l1 -254
-33 28 c-30 26 -140 122 -192 170 -12 11 -62 56 -111 100 -49 44 -104 94 -122
110 -17 17 -42 39 -55 49 -13 11 -38 32 -56 48 l-33 28 -219 0 -220 0 0 -395z
m3063 162 c50 -33 49 -120 -2 -150 -26 -15 -66 -17 -365 -17 l-336 0 0 93 0
93 338 0 c305 -1 340 -3 365 -19z"/>
</g>
</svg>
